
      <svg data-logo="logo" xmlns="http://www.w3.org/2000/svg" viewBox="0 0 176 43">
        <g id="logogram" transform="translate(0, 1) rotate(0) "><path fill-rule="evenodd" clip-rule="evenodd" d="M20.1719 5.45685L22.8086 0.889954L30.285 5.20648L27.6483 9.77338C27.186 10.5742 27.8792 11.5476 28.7872 11.3725L33.8389 10.3984L35.4735 18.8753L30.4218 19.8494C22.2497 21.4253 16.0106 12.6645 20.1719 5.45685Z" fill="#3A724F"/><path fill-rule="evenodd" clip-rule="evenodd" d="M15.6034 36.3231L12.9667 40.89L5.49021 36.5735L8.12691 32.0066C8.58928 31.2057 7.89604 30.2323 6.98803 30.4074L1.93636 31.3815L0.301758 22.9046L5.35343 21.9305C13.5255 20.3547 19.7647 29.1155 15.6034 36.3231Z" fill="#DC8E43"/><path fill-rule="evenodd" clip-rule="evenodd" d="M15.8321 5.45685L13.1954 0.889954L5.71891 5.20648L8.35561 9.77338C8.81797 10.5742 8.12474 11.5476 7.21673 11.3725L2.16505 10.3984L0.530457 18.8753L5.58213 19.8494C13.7542 21.4253 19.9934 12.6645 15.8321 5.45685Z" fill="#14424C"/><path fill-rule="evenodd" clip-rule="evenodd" d="M19.9514 36.3231L22.5881 40.89L30.0645 36.5735L27.4278 32.0066C26.9654 31.2057 27.6587 30.2323 28.5667 30.4074L33.6184 31.3815L35.253 22.9046L30.2013 21.9305C22.0292 20.3547 15.79 29.1155 19.9514 36.3231Z" fill="#C85D1B"/></g>
        <g id="logotype" transform="translate(42, 3.5)"><path fill="#a322a5" d="M13.12 30L8.48 30L8.48 6.38L15.22 6.38L22.22 23.03L22.33 23.03L29.30 6.38L36.01 6.38L36.01 30L31.08 30L31.08 13.32L30.97 13.32L24.20 30L19.97 30L13.23 13.32L13.12 13.32L13.12 30ZM57.16 25.68L57.16 30L39.92 30L39.92 6.38L57.16 6.38L57.16 10.69L44.85 10.69L44.85 15.65L56.20 15.65L56.20 19.85L44.85 19.85L44.85 25.68L57.16 25.68ZM77.28 25.68L77.28 30L60.05 30L60.05 6.38L77.28 6.38L77.28 10.69L64.98 10.69L64.98 15.65L76.32 15.65L76.32 19.85L64.98 19.85L64.98 25.68L77.28 25.68ZM90.90 10.69L90.90 30L86.06 30L86.06 10.69L78.39 10.69L78.39 6.38L98.58 6.38L98.58 10.69L90.90 10.69ZM105.81 30L100.85 30L100.85 6.38L105.81 6.38L105.81 30ZM129.46 35.95L122.43 35.95Q120.54 35.95 119.49 34.99Q118.44 34.02 118.44 32.07L118.44 32.07L118.44 30.12Q115.43 29.59 113.25 28.00Q111.06 26.41 109.89 23.92Q108.73 21.43 108.73 18.19L108.73 18.19Q108.73 14.45 110.24 11.73Q111.76 9 114.47 7.51Q117.18 6.02 120.80 6.02L120.80 6.02Q124.45 6.02 127.16 7.50Q129.87 8.97 131.37 11.70Q132.88 14.42 132.88 18.19L132.88 18.19Q132.88 21.43 131.71 23.92Q130.54 26.41 128.37 28.00Q126.20 29.59 123.16 30.09L123.16 30.09L123.16 31.95L129.46 31.95L129.46 35.95ZM120.80 26.03L120.80 26.03Q124.18 26.03 126.05 23.90Q127.92 21.77 127.92 18.19L127.92 18.19Q127.92 14.57 126.06 12.46Q124.21 10.34 120.80 10.34L120.80 10.34Q117.42 10.34 115.55 12.46Q113.68 14.57 113.68 18.19L113.68 18.19Q113.68 21.77 115.55 23.90Q117.42 26.03 120.80 26.03Z"/></g>
        
      </svg>
    